#!OML:ASF E:\emotionWalksFemale\Project 1\Capture day 1\Session 1\Female1.ASF
:FULLY-SPECIFIED
:DEGREES
111
root 9.80323 15.3708 -38.7685 0.0170291 -2.21423 -0.0319267
lowerback 6.53084 0.916742 -0.0643046
upperback -4.77328 1.19876 -0.321178
thorax -8.7011 0.577048 -0.470749
lowerneck -4.58224 -6.85462 -8.88096
upperneck 18.6179 -8.96205 2.83513
head 6.98446 -4.72252 1.67425
rclavicle -8.48562e-015 1.59028e-015
rhumerus -47.0134 22.7032 -103.375
rradius 33.2354
rwrist 12.521
rhand -3.66821 -52.6257
rfingers 7.12502
rthumb 22.0725 -81.386
lclavicle -8.48562e-015 1.59028e-015
lhumerus -44.0364 -6.05821 90.0069
lradius 36.279
lwrist -13.657
lhand -5.8969 -33.684
lfingers 7.12502
lthumb 19.9315 -4.68613
rfemur -4.12879 20.1357 23.7496
rtibia 26.9089
rfoot -20.7666 -32.5161
rtoes -10.0941
lfemur -6.79795 -20.7075 -26.585
ltibia 28.7776
lfoot -25.6997 22.5095
ltoes -15.0092
112
root 9.8019 15.3699 -38.7676 -0.064087 -2.30183 -0.0386077
lowerback 6.41017 0.930705 0.0830478
upperback -4.64646 1.22688 -0.397882
thorax -8.48734 0.580381 -0.634135
lowerneck -4.59526 -6.84877 -8.83036
upperneck 18.5417 -8.96247 2.86952
head 6.96073 -4.71565 1.67784
rclavicle 1.14922e-014 -1.15295e-014
rhumerus -46.7507 22.6197 -103.318
rradius 33.1118
rwrist 12.4534
rhand -3.56098 -52.1919
rfingers 7.12502
rthumb 22.1755 -80.94
lclavicle 1.14922e-014 -1.15295e-014
lhumerus -43.8884 -6.08507 89.8875
lradius 36.254
lwrist -13.6832
lhand -5.96586 -33.5744
lfingers 7.12502
lthumb 19.8652 -4.56962
rfemur -4.03015 20.146 23.7798
rtibia 26.8909
rfoot -20.7946 -32.425
rtoes -10.1828
lfemur -6.7002 -20.6856 -26.6086
ltibia 28.8163
lfoot -26.0424 22.3084
ltoes -13.5071
113
root 9.79476 15.3659 -38.7605 -0.242284 -2.04278 -0.0546766
lowerback 6.4562 0.858733 0.0171105
upperback -4.5806 1.12541 -0.373525
thorax -8.44573 0.535768 -0.557594
lowerneck -4.57237 -6.85186 -8.76193
upperneck 18.545 -8.95833 2.77089
head 6.94983 -4.71702 1.63673
rclavicle -3.5657e-015 -1.56046e-014
rhumerus -46.8556 22.7431 -103.447
rradius 33.0738
rwrist 12.6665
rhand -3.78714 -52.3391
rfingers 7.12502
rthumb 21.9584 -81.1128
lclavicle -3.5657e-015 -1.56046e-014
lhumerus -43.9036 -6.06483 89.8898
lradius 36.2149
lwrist -13.6841
lhand -5.85836 -33.554
lfingers 7.12502
lthumb 19.9685 -4.56002
rfemur -3.70608 20.2658 23.9922
rtibia 26.8672
rfoot -20.8707 -32.8159
rtoes -10.3609
lfemur -6.48536 -20.7848 -26.6163
ltibia 28.8641
lfoot -26.2194 21.9683
ltoes -12.6134
114
root 9.78986 15.3608 -38.756 -0.450899 -2.09176 -0.050368
lowerback 6.51351 0.890072 -0.0166992
upperback -4.46317 1.1635 -0.379972
thorax -8.35244 0.556539 -0.550123
lowerneck -4.6706 -6.86154 -8.68724
upperneck 18.5829 -8.96236 2.71906
head 6.97342 -4.71691 1.60396
rclavicle 1.24737e-014 -1.5207e-014
rhumerus -46.7172 22.6977 -103.376
rradius 33.0212
rwrist 12.5704
rhand -3.54253 -52.4879
rfingers 7.12502
rthumb 22.1932 -81.2338
lclavicle 1.24737e-014 -1.5207e-014
lhumerus -43.8558 -6.13519 89.897
lradius 36.2177
lwrist -13.5525
lhand -5.53707 -33.4391
lfingers 7.12502
lthumb 20.2773 -4.47755
rfemur -3.43697 20.3843 24.1116
rtibia 26.8478
rfoot -21.0084 -32.8674
rtoes -9.89771
lfemur -6.2238 -20.7979 -26.7042
ltibia 28.8954
lfoot -26.407 21.9606
ltoes -11.9887
115
root 9.78718 15.3592 -38.7479 -0.515804 -2.16925 -0.0265402
lowerback 6.45693 0.9305 -0.0631013
upperback -4.43395 1.21392 -0.369931
thorax -8.28848 0.584471 -0.518831
lowerneck -4.68866 -6.85177 -8.72219
upperneck 18.629 -8.94712 2.73412
head 6.99308 -4.71093 1.61437
rclavicle -7.20594e-015 9.93923e-016
rhumerus -46.7456 22.7118 -103.354
rradius 33.0403
rwrist 12.5616
rhand -3.14323 -52.9027
rfingers 7.12502
rthumb 22.5765 -81.6026
lclavicle -7.20594e-015 9.93923e-016
lhumerus -43.9091 -6.11871 89.9319
lradius 36.244
lwrist -13.5118
lhand -5.46139 -33.3698
lfingers 7.12502
lthumb 20.35 -4.41604
rfemur -3.3317 20.4592 24.1416
rtibia 26.8473
rfoot -21.0646 -32.8617
rtoes -9.40987
lfemur -6.09021 -20.839 -26.7732
ltibia 28.9002
lfoot -26.6779 21.9474
ltoes -10.8828
116
root 9.78484 15.3647 -38.7536 -0.271037 -2.18919 -0.00622679
lowerback 6.33024 0.934509 -0.107104
upperback -4.53122 1.21605 -0.357256
thorax -8.32064 0.588398 -0.479917
lowerneck -4.63983 -6.81498 -8.77539
upperneck 18.6132 -8.89606 2.74472
head 6.9795 -4.68958 1.63275
rclavicle 1.19768e-014 -1.09332e-014
rhumerus -46.7744 22.7256 -103.311
rradius 33.0819
rwrist 12.6144
rhand -2.97815 -52.8248
rfingers 7.12502
rthumb 22.7349 -81.5053
lclavicle 1.19768e-014 -1.09332e-014
lhumerus -43.9437 -6.04362 89.9363
lradius 36.2891
lwrist -13.5605
lhand -5.60229 -33.4555
lfingers 7.12502
lthumb 20.2146 -4.48737
rfemur -3.69763 20.3071 23.9745
rtibia 26.8634
rfoot -20.6322 -32.8101
rtoes -10.1371
lfemur -6.40713 -20.8777 -26.6833
ltibia 28.8813
lfoot -26.4305 22.1406
ltoes -12.023
117
root 9.78343 15.3637 -38.7498 -0.207207 -2.20667 -0.0109745
lowerback 6.2063 0.917069 -0.0903362
upperback -4.54784 1.19578 -0.341654
thorax -8.26603 0.578313 -0.467973
lowerneck -4.62033 -6.77691 -8.81558
upperneck 18.627 -8.83809 2.7285
head 6.97842 -4.66611 1.63964
rclavicle 9.16894e-015 2.38542e-015
rhumerus -46.8137 22.7225 -103.281
rradius 33.1569
rwrist 12.6181
rhand -3.0242 -52.3647
rfingers 7.12502
rthumb 22.6907 -81.0506
lclavicle 9.16894e-015 2.38542e-015
lhumerus -43.9368 -5.97615 89.9464
lradius 36.2766
lwrist -13.5928
lhand -5.72627 -33.3819
lfingers 7.12502
lthumb 20.0955 -4.40114
rfemur -3.76243 20.2153 23.9607
rtibia 26.8694
rfoot -20.516 -32.7797
rtoes -10.8632
lfemur -6.47077 -20.8396 -26.6477
ltibia 28.8616
lfoot -26.1148 22.4093
ltoes -13.8058
118
root 9.7798 15.3616 -38.7475 -0.282291 -2.18977 -0.014444
lowerback 6.29712 0.89235 -0.110832
upperback -4.55955 1.16208 -0.318385
thorax -8.33306 0.563495 -0.42935
lowerneck -4.52655 -6.74168 -8.83548
upperneck 18.5808 -8.79008 2.70265
head 6.94404 -4.64721 1.64282
rclavicle 1.84497e-014 3.67752e-015
rhumerus -46.887 22.7362 -103.295
rradius 33.2065
rwrist 12.6421
rhand -2.99043 -52.2734
rfingers 7.12502
rthumb 22.7231 -80.9553
lclavicle 1.84497e-014 3.67752e-015
lhumerus -43.9854 -5.89716 89.9504
lradius 36.2777
lwrist -13.6335
lhand -5.77394 -33.1689
lfingers 7.12502
lthumb 20.0497 -4.18339
rfemur -3.64808 20.2861 24.0305
rtibia 26.8854
rfoot -20.7395 -32.76
rtoes -10.8648
lfemur -6.37395 -20.7784 -26.6568
ltibia 28.8439
lfoot -26.0491 22.4216
ltoes -14.0377
119
root 9.77837 15.3607 -38.7454 -0.347737 -2.18853 0.00306103
lowerback 6.295 0.873016 -0.173571
upperback -4.50959 1.13443 -0.258445
thorax -8.28041 0.555754 -0.326592
lowerneck -4.57065 -6.76043 -8.87923
upperneck 18.6073 -8.78324 2.57204
head 6.95704 -4.65657 1.6064
rclavicle 1.6934e-014 -1.36167e-014
rhumerus -46.8592 22.9004 -103.259
rradius 33.1787
rwrist 12.6785
rhand -3.05726 -52.2965
rfingers 7.12502
rthumb 22.659 -80.9863
lclavicle 1.6934e-014 -1.36167e-014
lhumerus -43.9723 -5.65855 89.9457
lradius 36.3473
lwrist -13.7622
lhand -5.56892 -33.125
lfingers 7.12502
lthumb 20.2467 -4.16022
rfemur -3.57025 20.3146 24.0446
rtibia 26.9077
rfoot -20.8941 -32.6649
rtoes -10.5484
lfemur -6.29008 -20.7236 -26.6966
ltibia 28.8295
lfoot -26.1054 22.3614
ltoes -14.0742
120
root 9.77776 15.358 -38.7434 -0.442502 -2.22609 0.0338122
lowerback 6.52228 0.856495 -0.118475
upperback -4.57187 1.11456 -0.292317
thorax -8.47949 0.540969 -0.39541
lowerneck -4.64245 -6.83798 -8.91883
upperneck 18.9166 -8.86744 2.46552
head 7.07314 -4.711 1.56397
rclavicle -2.04997e-015 -7.25564e-015
rhumerus -47.0028 22.9316 -103.4
rradius 33.1553
rwrist 12.7287
rhand -3.17888 -52.1745
rfingers 7.12502
rthumb 22.5423 -80.8785
lclavicle -2.04997e-015 -7.25564e-015
lhumerus -44.1236 -5.55448 89.8673
lradius 36.3557
lwrist -13.8857
lhand -5.5511 -33.1699
lfingers 7.12502
lthumb 20.2638 -4.20694
rfemur -3.46427 20.2945 24.0469
rtibia 26.9292
rfoot -21.0158 -32.6021
rtoes -10.1057
lfemur -6.15751 -20.7115 -26.7765
ltibia 28.8076
lfoot -26.1409 22.3887
ltoes -14.1999
121
root 9.77393 15.3599 -38.7468 -0.402297 -2.11194 0.0971747
lowerback 6.21506 0.838097 -0.258259
upperback -4.41152 1.07852 -0.272323
thorax -8.12912 0.53317 -0.283683
lowerneck -4.57881 -6.80527 -8.96123
upperneck 18.5501 -8.83639 2.58836
head 6.94826 -4.68547 1.62002
rclavicle -3.00662e-015 1.39149e-015
rhumerus -46.737 23.0712 -103.288
rradius 33.1519
rwrist 12.6316
rhand -3.22707 -52.2417
rfingers 7.12502
rthumb 22.496 -80.9513
lclavicle -3.00662e-015 1.39149e-015
lhumerus -43.8166 -5.60963 89.9317
lradius 36.2762
lwrist -13.8863
lhand -5.67829 -33.0624
lfingers 7.12502
lthumb 20.1416 -4.08656
rfemur -3.51478 20.2498 23.9827
rtibia 26.953
rfoot -21.0659 -32.6731
rtoes -9.87218
lfemur -6.21686 -20.7074 -26.7861
ltibia 28.792
lfoot -26.0239 22.2599
ltoes -14.3785
122
root 9.7715 15.3623 -38.7425 -0.390172 -2.18341 0.145692
lowerback 6.49123 0.86277 -0.152821
upperback -4.61942 1.11109 -0.400095
thorax -8.51134 0.537542 -0.489494
lowerneck -4.41575 -6.76538 -8.90485
upperneck 18.5936 -8.82281 2.68328
head 6.93376 -4.67105 1.64834
rclavicle 1.14301e-015 5.1684e-015
rhumerus -47.0108 22.8066 -103.53
rradius 33.1201
rwrist 12.7215
rhand -3.33112 -52.3508
rfingers 7.12502
rthumb 22.3961 -81.0725
lclavicle 1.14301e-015 5.1684e-015
lhumerus -44.1838 -5.81402 89.8528
lradius 36.3788
lwrist -13.7964
lhand -5.63675 -32.9691
lfingers 7.12502
lthumb 20.1815 -3.99738
rfemur -3.5374 20.2348 23.9173
rtibia 26.9642
rfoot -20.9283 -32.6422
rtoes -10.087
lfemur -6.18271 -20.769 -26.8492
ltibia 28.7766
lfoot -26.2057 22.1647
ltoes -13.1272
123
root 9.76745 15.357 -38.7376 -0.596353 -2.18526 0.0946867
lowerback 6.79966 0.843659 -0.0594802
upperback -4.65404 1.09367 -0.40712
thorax -8.72851 0.522224 -0.553003
lowerneck -4.4292 -6.75364 -8.91782
upperneck 18.697 -8.80758 2.6853
head 6.96942 -4.66571 1.65058
rclavicle 4.42296e-015 6.26172e-015
rhumerus -47.1651 22.7644 -103.651
rradius 33.1279
rwrist 12.7598
rhand -3.39373 -52.3493
rfingers 7.12502
rthumb 22.3361 -81.0782
lclavicle 4.42296e-015 6.26172e-015
lhumerus -44.3532 -5.84146 89.8218
lradius 36.3718
lwrist -13.8681
lhand -5.62337 -33.1148
lfingers 7.12502
lthumb 20.1944 -4.14446
rfemur -3.23825 20.3122 24.1164
rtibia 26.9513
rfoot -21.027 -32.7275
rtoes -9.62133
lfemur -5.91717 -20.7545 -26.8691
ltibia 28.7817
lfoot -26.3236 22.0857
ltoes -12.5789
124
root 9.76222 15.3593 -38.7425 -0.463861 -2.15033 0.0744464
lowerback 6.71568 0.823742 -0.111561
upperback -4.66327 1.06452 -0.370607
thorax -8.691 0.512616 -0.479636
lowerneck -4.5402 -6.76288 -8.94277
upperneck 18.7069 -8.80472 2.67224
head 6.99271 -4.66556 1.64633
rclavicle -5.92627e-015 9.93923e-015
rhumerus -47.084 22.9177 -103.644
rradius 33.1713
rwrist 12.5383
rhand -3.49106 -52.2235
rfingers 7.12502
rthumb 22.2426 -80.9636
lclavicle -5.92627e-015 9.93923e-015
lhumerus -44.2113 -5.86742 89.8614
lradius 36.2812
lwrist -13.8503
lhand -5.35513 -33.383
lfingers 7.12502
lthumb 20.4522 -4.4401
rfemur -3.3898 20.3525 24.1037
rtibia 26.924
rfoot -21.1056 -32.7127
rtoes -9.16961
lfemur -6.11204 -20.6788 -26.7481
ltibia 28.7965
lfoot -26.1324 22.1766
ltoes -13.8632
